<svg xmlns="http://www.w3.org/2000/svg" xmlns:xlink="http://www.w3.org/1999/xlink" width="162" height="162" viewBox="0 0 162 162">
  <defs>
    <linearGradient id="linear-gradient" x1="1" y1="0.031" x2="-1.05" y2="3.757" gradientUnits="objectBoundingBox">
      <stop offset="0" stop-color="#e49e71"/>
      <stop offset="1" stop-color="#e07e6f"/>
    </linearGradient>
  </defs>
  <g id="Group_41" data-name="Group 41" transform="translate(-194 -271)">
    <rect id="Feather_Button" data-name="Feather Button" width="162" height="162" rx="15" transform="translate(194 271)" fill="url(#linear-gradient)"/>
    <g id="Group_17" data-name="Group 17" transform="translate(-2319.026 -547.579)">
      <path id="Path_32" data-name="Path 32" d="M2589.491,848.226c.835-.008.651-.666.588-1.084-.343-2.3.607-4.466.616-6.721,0-.615.485-.847.828-1.162.15-.138.541-.081.793-.009.108.031.208.33.194.5-.03.376.183.8-.209,1.124a1.977,1.977,0,0,0-.33,2.245c.858,2.662.784,5.587,2.9,7.925,1.266,1.4,1.431,3.624,1.888,5.54.067.281.063.706.338.682.307-.027.354-.473.272-.752-.788-2.705-.591-5.478-.594-8.237a10.148,10.148,0,0,1,.489-3.118,9.816,9.816,0,0,0,.816-2.74,3.387,3.387,0,0,1,2.417-3.248c.37-.108.607-1.029,1.1-.331.234.332-.093.709-.384,1.031-.365.4.111.407.335.463.33.083.97.093.382.572-1.577,1.284-1.732,3.249-2,4.911-.289,1.765-.651,3.776.313,5.556.5.924.124,1.9.344,2.876a31.164,31.164,0,0,0,3.114,7.2,17.956,17.956,0,0,1,1.57,9.051c-1.884,2.232-.382,4.752-.591,7.126a5.091,5.091,0,0,1-.531,1.913c-.269.548-.552,1.233-.984,1.342-.555.141.011-1.217-.927-1.109.015-.42-.187-.622-.742-.607h.135a2.345,2.345,0,0,0-.175-.467c-.1-.16-.284-.121-.357.114-.026.083.168.234.4.353.12.42.322.622.742.607-.616,1.5-1.956,1.7-3.315,1.813-1.511.127-1.581.106-1.52,1.677a10.67,10.67,0,0,1-.968,4.46c-.557,1.386,0,2.382,1.432,2.976a7.472,7.472,0,0,1,3.662,3.4,32.876,32.876,0,0,1,3.242,8.983,59.274,59.274,0,0,1,1.116,12.255c-.019.871.3,1.057,1.069.666,1.838-.937,3.594-2.07,5.5-2.827,7.5-2.972,14.652-6.644,21.8-10.335a10.057,10.057,0,0,0,2.689-1.6c.579-.569,1.569-.214,2.057.414.436.561.156,1.154.234,1.725.072.528-.339.513-.707.691-2.789,1.347-5.367,3.074-8.19,4.389-3.562,1.659-7.271,2.96-10.8,4.674-1.761-.275-2.5,1.736-4.094,1.831-2.779,2.162-6.046,3.517-8.981,5.427-.733.477-1.232.843-1.208,1.778a10.994,10.994,0,0,1-.518,4.02c-.428,1.228-.018,2.632-.6,4-.577,1.35.256,2.835.818,4.145,1.583,3.692,3.314,7.321,4.892,11.015.954,2.232,1.728,4.541,2.593,6.811a1.739,1.739,0,0,1-.619,2.082,8.6,8.6,0,0,1-4.655,1.916c-.712.115-1.225.516-1.864.656-.278.06-.462.048-.547.416-.551,2.391-.566,2.375-2.69,2.636-1.109.137-2.2,1.222-3.3.407-1.056-.781-2.279.04-3.13-.489-.624-.388-1.949.07-1.932-1.34,0-.293-.473-.6-.75-.885-.966-.979-1.617-1.118-2.475-.157-2.321,2.6-4.944,2.085-7.66.926-1.094-.467-2.148-1.555-3.171.116-.1.169-.53.189-.809.194a16.26,16.26,0,0,0-4.709,1.08c-1.392.453-3.931-1.789-3.4-3.044,1.512-3.607,1.8-7.513,2.855-11.234.895-3.161,1.235-6.492,2.53-9.585a6.329,6.329,0,0,0,.042-2.108.491.491,0,0,0-.51-.577c-1.855-.055-3.647-1.144-5.5-.581-2.329.709-4.728.266-7.024.654a44.281,44.281,0,0,0-6.778,1.905c-2.025.689-4.287.8-6.056,2.236a.548.548,0,0,1-.833-.509,3.83,3.83,0,0,0-.328-1.381c-.649-1.519-.371-1.706,1.339-2.464,3.54-1.57,7.409-2.069,10.983-3.507,2.576.2,5.029-.9,7.638-.649,1.825.175,1.956-.023,2.169-1.92.077-.685.288-1.357.791-1.462,1.809-.377.863-1.236.463-2.025a54.723,54.723,0,0,1-2.647-6.49c-.783-2.208-1.354-4.48-2.15-6.684-.708-1.959-1.092-10.909-.62-12.759.654-2.565,1.167-5.272,3.491-7.039,1.843-1.4,2.726-3.657,4.514-5.1.677-.546.041-.723-.137-1.1-.186-.393.085-.734.407-1.029.6-.545,1.134-1.154,1.729-1.7.347-.319.139-.534-.13-.568-1.188-.147-.94-.558-.457-1.361.339-.564.992-1.184.321-2.164-.364-.532.431-1.2,1.19-1.342.518-.1.777-.415.144-.559-.559-.127-.8-.592-1.219-.737-1.142-.394-1.429-1.286-1.683-2.31-.412-1.662-.451-1.652-1.774-3.006-.5-.51-1.266-.9-.4-1.8.283-.293-.343-.63-.5-.963a.838.838,0,0,1,.124-.781c.154-.145.68-.181.768-.062a1.539,1.539,0,0,0,1.627.5c1.991-.246,3.881.382,5.816.616.3.036.594-.03.607-.366.005-.137-.282-.27-.4-.431-.266-.363-.685-.309-1.03-.449-1.079-.438-2.383-.479-2.8-2.064-.234-.9-1.476-1.118-2.327-1.544a7.291,7.291,0,0,1-2.651-1.679c-.271-.331-.609-.68-.388-1.033.38-.606.551.131.835.226a1.448,1.448,0,0,0,.581.054c.284-.028.674-.006.82-.175.264-.308-.171-.5-.346-.6-.675-.386-.529-1.257-1.067-1.69-.23-.186-.291-.315-.055-.428.167-.08.416-.182.545-.115,1.5.787,2.973,1.611,4.468,2.4a.712.712,0,0,0,.583-.026c.416-.234.107-.442-.079-.63-1.071-1.074-2.151-2.138-3.212-3.221-.39-.4-1.142-.837-.452-1.43.633-.544,1.021.24,1.436.608a8.324,8.324,0,0,1,.855.859c.332.4.758.13,1.41.388.183.059.111-.107-.013-.166-.254-.123-.38,0-.255.256a.81.81,0,0,0,.354.274c.023.012.122-.117-.086-.364-.335-1.63-1.3-2.812-1.485-4.223a.883.883,0,0,1,.077-.568c.33-.476.494.037.621.182,2.609,2.97,6.043,4.9,9.114,7.29a.708.708,0,0,0,.812.126c.566-.454-.14-.589-.3-.829-.65-.965-1.077-2.347-2.158-2.676-1.264-.385-1.373-1.53-2.019-2.247a15.832,15.832,0,0,1-3.716-9.647c-.023-.279-.149-.681.2-.795.151-.049.495.208.62.408.637,1.02,1.061.338,1.513-.159.325-.359.6-.529.691.151.639,4.943,2.521,7.478,6.92,9.822,1.1.586,2.671.95,2.806,2.678.006.073.266.126.408.188a3.29,3.29,0,0,0,.177-.532,2.841,2.841,0,0,0-.946-2.3c-.634-.667-.707-1.653-1.449-2.152C2589.272,849.825,2589.521,849,2589.491,848.226Z" transform="translate(0 0)" fill="#0f1b22"/>
      <path id="Path_33" data-name="Path 33" d="M2639.692,855.1a9.235,9.235,0,0,0,.012,1.172c.038.3-.03.425-.3.282a.642.642,0,0,1-.306-.439,14.281,14.281,0,0,1,0-1.759,3.335,3.335,0,0,1,.244-.775c.478.174.334.585.35.932C2639.7,854.712,2639.692,854.908,2639.692,855.1Z" transform="translate(-50.201 -8.345)" fill="#0f1b22"/>
    </g>
  </g>
</svg>
