<svg xmlns="http://www.w3.org/2000/svg" xmlns:xlink="http://www.w3.org/1999/xlink" width="162" height="162" viewBox="0 0 162 162">
  <defs>
    <linearGradient id="linear-gradient" x1="0.977" y1="-1.353" x2="-1.055" y2="2.36" gradientUnits="objectBoundingBox">
      <stop offset="0" stop-color="#e49e71"/>
      <stop offset="1" stop-color="#e07e6f"/>
    </linearGradient>
  </defs>
  <g id="Group_43" data-name="Group 43" transform="translate(-194 -495)">
    <rect id="Fins_Button" data-name="Fins Button" width="162" height="162" rx="15" transform="translate(194 495)" fill="url(#linear-gradient)"/>
    <g id="Group_14" data-name="Group 14" transform="translate(-2307.713 -662.612)">
      <path id="Path_29" data-name="Path 29" d="M2560.441,1210.641c1.038-.267,2.242.207,3.473.3a6.882,6.882,0,0,1,2.292.677,21.25,21.25,0,0,1,2.507,1.18c.789.5,1.621.922,2.378,1.479a21.566,21.566,0,0,0,5.421,2.325,8.371,8.371,0,0,0,1.9,0c.389-.042.688.351,1.161.057.327-.2.9.031,1.333-.053.913-.178,1.805-.46,2.715-.656a5.912,5.912,0,0,1,2.139-.405c.473.072.755-.417,1.254-.306.358.08.816.172,1.111-.246.015-.022.087-.009.132,0,1.163.186,2.274-.318,3.423-.267,2.194.1,4.356-.488,6.552-.275.39.038.858-.174,1.155.145.366.394.71-.314,1.126.089.21.2.781.035,1.189.035s.888-.138,1.208.03a3.562,3.562,0,0,0,1.807.234,15.78,15.78,0,0,1,1.786.325,29.18,29.18,0,0,1,4.257.859c1.338.353,2.64.842,3.959,1.271a22.5,22.5,0,0,1,6.894,3.355,11.965,11.965,0,0,1,4.239,5.266,4.559,4.559,0,0,0,2.552,2.586,14.866,14.866,0,0,1,4.467,3.032,3.594,3.594,0,0,1,.923,1.8,2.04,2.04,0,0,1-.58,1.661,19.87,19.87,0,0,1-1.915,1.926,1.805,1.805,0,0,1-.883.468,8.515,8.515,0,0,1-1.377.242c-1.127-.053-2.184.458-3.288.308-.565-.077-.962.359-1.524.316-.5-.038-1.076-.249-1.535.207a.35.35,0,0,1-.254.034c-1.163-.168-2.265.308-3.423.318a9.22,9.22,0,0,0-2.053.274c-.7.172-1.4.1-2.069.251a13.92,13.92,0,0,1-2.636.532.614.614,0,0,0-.615.7c.015.815,0,1.63.005,2.446a16.192,16.192,0,0,1-1.668,6.782,3.336,3.336,0,0,1-.853,1.145,20.347,20.347,0,0,1-2.771,2.5c-.673.406-1.169.438-1.572-.228a12.377,12.377,0,0,1-1.564-3.424c-.42-1.724-.908-3.43-1.386-5.137a1.838,1.838,0,0,0-2.739-1.1c-1.536.673-1.782,1-2.754,2.728s-2.013,3.445-3.157,5.082a44.275,44.275,0,0,1-2.755,3.63,21.7,21.7,0,0,1-1.97,2.15,21.047,21.047,0,0,1-3.417,2.562c-.774.443-1.589.762-2.385,1.138a2.063,2.063,0,0,1-1.005.195.778.778,0,0,1-.74-1.156,16.635,16.635,0,0,1,1.128-2.79,47.209,47.209,0,0,0,2.554-5.6,7.111,7.111,0,0,0,.394-3.235c-.017-.265-.2-.216-.372-.259-.685-.169-1.249.455-1.929.279-.8.545-1.8.426-2.662.8-.846.361-1.79.495-2.64.85-1.468.615-2.914,1.29-4.337,2a30.8,30.8,0,0,0-5.685,3.707,59.1,59.1,0,0,0-4.842,4.663c-1.478,1.511-2.821,3.158-4.223,4.744-1.244,1.406-2.416,2.879-3.56,4.367-.915,1.189-1.746,2.443-2.6,3.675a1.326,1.326,0,0,0-.075,1.651c.745,1.091,1.459,2.2,2.181,3.308.326.5.677.984.953,1.508.321.609.066,1.053-.6,1.066a22.233,22.233,0,0,1-3.666-.04,12.7,12.7,0,0,0-2.34-.219,16.857,16.857,0,0,0-7.259,1.846c-2.034,1.058-3.941,2.31-5.92,3.443-1.8,1.032-3.337,2.4-5.047,3.534-.715.475-1.331,1.149-2.019,1.7a2.148,2.148,0,0,1-1.246.615c-.541.03-.573,0-.607-.57a7.561,7.561,0,0,1,1.2-3.987,23.74,23.74,0,0,1,2.368-3.633c.785-.987,1.463-2.05,2.281-3.021a30.344,30.344,0,0,1,3.326-3.756c.847-.721,1.635-1.5,2.474-2.222a6.19,6.19,0,0,0,1.936-3.278c.1-.407.445-.764.3-1.241-.136-.453.3-.842.243-1.241-.1-.694.387-1.278.281-1.927-.113-.69.273-1.265.334-1.923a17.14,17.14,0,0,1,.556-2.888c.255-.929.17-1.966.757-2.8a36.248,36.248,0,0,1,1.129-4.975c.285-1.26.694-2.512,1.092-3.753.5-1.556,1.064-3.092,1.583-4.642a12.227,12.227,0,0,1,.659-1.626c.723-1.423,1.189-2.958,2.044-4.326.656-1.05,1.292-2.106,2.05-3.087,1-1.291,2.082-2.506,3.136-3.746.87-1.023,1.843-1.933,2.729-2.93.562-.633,1.343-.992,1.928-1.614a5.35,5.35,0,0,1,1.778-1.588c.17-.069.252-.427.564-.551a2.12,2.12,0,0,0,.678-.652c.169-.2.421-.313.5-.608a2.636,2.636,0,0,1,.379-.79c.108-.157.25-.354.116-.458-.55-.426,0-1.1-.439-1.608-.3-.344-.282-.955-.418-1.443-.377-1.355-1.3-2.445-1.825-3.728-1.334-1.292-2.5-2.789-4.211-3.624a1.225,1.225,0,0,1-.755-.774c-.048-.148-.27-.263-.2-.455.09-.234.177-.539.363-.651a2.86,2.86,0,0,1,1.374-.569c.6.02,1.072-.37,1.657-.324S2559.632,1210.641,2560.441,1210.641Z" fill="#0f1b22"/>
    </g>
  </g>
</svg>
