<svg xmlns="http://www.w3.org/2000/svg" xmlns:xlink="http://www.w3.org/1999/xlink" width="162" height="162" viewBox="0 0 162 162">
  <defs>
    <linearGradient id="linear-gradient" x1="2.029" y1="0.031" x2="0.043" y2="3.748" gradientUnits="objectBoundingBox">
      <stop offset="0" stop-color="#e49e71"/>
      <stop offset="1" stop-color="#e07e6f"/>
    </linearGradient>
  </defs>
  <g id="Group_40" data-name="Group 40" transform="translate(-18 -271)">
    <rect id="Koala" width="162" height="162" rx="15" transform="translate(18 271)" fill="url(#linear-gradient)"/>
    <g id="Group_16" data-name="Group 16" transform="translate(-3559.815 -1021.505)">
      <path id="Path_31" data-name="Path 31" d="M3649.5,1416.64c0-.319-.011-.639,0-.958.081-1.837-.089-3.217-2.219-4.238-1.811-.868-3.06-2.891-4.584-4.377-.9-.876-.77-.745-1.573.414-1.131,1.632-1.178,3.574-1.754,5.34-.923,2.829-2.08,5.637-2.055,8.751.016,2-1.1,2.8-3.181,2.809-2.341.012-4.793.432-6.99-.131-1.8-.462-3.267.452-4.943.195a29.447,29.447,0,0,0-5.418-.032c-.344.012-.66.434-1.021.591-.145.063-.4-.043-.567-.132-.222-.116-.164-.275.09-.446.593-.4.952-1.02,1.664-1.371.99-.49,2.393-.558,2.61-2.189.092-.685,1.1-.19,1.682-.43a9.607,9.607,0,0,1,4.625-1.116,3.6,3.6,0,0,0,2.809-.8,7.178,7.178,0,0,0,1.663-3.418,2.479,2.479,0,0,0,0-.319c0-2.766-.4-5.606.11-8.276a46.873,46.873,0,0,0,.518-8.053c.048-2.764.017-5.531.007-8.3a5.441,5.441,0,0,0-.576-2.637,53.693,53.693,0,0,1-3.754-9.926,7.069,7.069,0,0,1-.131-1.86c-.014-2.446-.005-4.893-.005-7.339,0-.213-.009-.426,0-.638.134-2.907.147-2.92-2.182-5.213-2.877-2.833-5-6.072-5.463-10.179a1.8,1.8,0,0,0-.872-1.227c-.54-.433-.875.14-1.313.389a7.594,7.594,0,0,1-2.94,1.3c-1.056.063-1.815,1.265-2.9.677a8.062,8.062,0,0,1-3.469-2.969,24.869,24.869,0,0,1-3.2-14.623c.154-1.647,1.606-5.5,2.805-6.461s2.335-2.372,4.233-2.075c1.095.171,2.2-1.21,3.3.006,2.777-.081,4.242,1.871,5.563,3.819a14.411,14.411,0,0,0,1.62,1.858c.962,1.007,1.267.907,2.623.054a27.622,27.622,0,0,1,7.6-3.258c3.342-.906,6.66-.3,9.974-.557a2.03,2.03,0,0,1,1.425.442,1.391,1.391,0,0,0,1.937-.318c1.1-1.213,2.5-2.2,2.967-3.881a7.8,7.8,0,0,1,2.2-3.244,6.671,6.671,0,0,1,4.627-2.006c3.407-.293,6,1.36,8.157,3.4a11.62,11.62,0,0,1,3.542,7.1c.058.51-.088,1.219.193,1.491.575.555.665,1.465.4,1.7-.872.754-.438,1.913-1.226,2.745a10.241,10.241,0,0,1-6.911,3.411c-.755.055-1,.547-.676,1,1.446,2.01,1.2,4.289,1.188,6.532a1.956,1.956,0,0,0,1.365,2.112,21.579,21.579,0,0,1,5.467,3.81,57.986,57.986,0,0,0,9.288,6.817,76.021,76.021,0,0,0,11.512,5.359,18.543,18.543,0,0,1,5.166,3.683,38.337,38.337,0,0,1,10.17,14.6,32.714,32.714,0,0,1,1.847,5.959,28.631,28.631,0,0,1-1.612,16.416c-1.606,3.745-4.614,6.266-7.922,8.355a43.974,43.974,0,0,0-8.843,7.144,8,8,0,0,0-.984,1.492,2.778,2.778,0,0,1-3.107,1.638c-1.752-.375-3,.95-4.43,1.6a2.013,2.013,0,0,1-1.992-.016c-.766-.374-.311-2.151-1.463-1.521-.817.446-1.7.234-2.3.611-1.273.8-1.969.382-2.814-.585-1.054-1.208-1.252-1.272-.23-2.42a18.844,18.844,0,0,0,1.709-2.515c.925-1.444.813-1.521-.847-1.557-.638-.014-1.417.226-1.881-.058-.611-.374-1.03-.666-1.4.091-.94,1.948-1.829,3.922-2.709,5.9-.109.245-.173.684-.038.84,1.16,1.329,1.1,3.192,2.03,4.589a1.562,1.562,0,0,1-.287,2.413c-.5.39-.627.723-.033,1.141a1.762,1.762,0,0,1,.654.68,1.209,1.209,0,0,1-.119.842c-.052.114-.478.209-.537.141-.736-.844-1.722-.671-2.625-.6-.77.063-1.141-.385-1.59-.821-1.325-1.284-2.993-1.163-4.644-1.124-.643.015-.879.788-1.634.75-.414-.022-.3.719-.251,1.1a1.648,1.648,0,0,1-1.162,1.953c-.63.208-2.748-1.125-2.625-1.71.264-1.258-.618-2.142-.721-3.257-.128-1.37-.471-1.633-1.649-1.37a6.166,6.166,0,0,0-2.4,1.147c-1.366,1.038-2.677,2.178-4.634.827a2.957,2.957,0,0,0-2.714.178c-.229.13-.433.546-.662.086a.7.7,0,0,1,.139-.859c.467-.435.847-1.179,1.371-1.291,1.095-.235,1.349-.96,1.813-1.792a4.322,4.322,0,0,1,2.379-1.856c4.373-1.564,5.868-4.948,5.742-9.309C3649.493,1417.065,3649.5,1416.853,3649.5,1416.64Z" fill="#0f1b22"/>
    </g>
  </g>
</svg>
