<svg xmlns="http://www.w3.org/2000/svg" width="71.989" height="171.314" viewBox="0 0 71.989 171.314">
  <g id="leavesleft" transform="translate(-14.887 -63.555)">
    <g id="Group_3" data-name="Group 3" transform="translate(14.887 63.555)">
      <path id="Path_11" data-name="Path 11" d="M-824.947,814.079c-35.779,24.617-5.834,101-10.537,119.059-.106.405,41.141-64.979,44.536-106.431C-789.373,807.482-809.055,803.145-824.947,814.079Z" transform="translate(842.774 -808.19)" fill="#2e6686"/>
      <path id="Path_12" data-name="Path 12" d="M-778.285,832.906c-5.865,2.724-9.474,8.689-12.213,14.547a112.641,112.641,0,0,0-10.342,54.327" transform="translate(814.197 -825.116)" fill="none" stroke="#1a1818" stroke-miterlimit="10" stroke-width="3"/>
    </g>
    <g id="Group_4" data-name="Group 4" transform="translate(34.961 109.919)">
      <path id="Path_13" data-name="Path 13" d="M-744.992,961.188c35.779,24.617,5.834,101,10.538,119.059.105.405-41.141-64.979-44.536-106.431C-780.566,954.591-760.884,950.254-744.992,961.188Z" transform="translate(779.08 -955.299)" fill="#c1e4dd"/>
      <path id="Path_14" data-name="Path 14" d="M-727.725,982.724c5.865,2.724,9.474,8.689,12.213,14.547A112.645,112.645,0,0,1-705.17,1051.6" transform="translate(743.91 -974.081)" fill="none" stroke="#1a1818" stroke-miterlimit="10" stroke-width="3"/>
    </g>
  </g>
</svg>
