<svg xmlns="http://www.w3.org/2000/svg" width="71.989" height="171.314" viewBox="0 0 71.989 171.314">
  <g id="leavesright" transform="translate(-279.188 -591.596)">
    <g id="Group_5" data-name="Group 5" transform="translate(299.263 591.596)">
      <path id="Path_15" data-name="Path 15" d="M93.617,2474.409c35.779,24.617,5.834,101,10.538,119.059.106.405-41.141-64.979-44.536-106.431C58.043,2467.812,77.725,2463.475,93.617,2474.409Z" transform="translate(-59.529 -2468.52)" fill="#2e6686"/>
      <path id="Path_16" data-name="Path 16" d="M110.3,2493.236c5.865,2.725,9.474,8.689,12.213,14.547a112.642,112.642,0,0,1,10.342,54.328" transform="translate(-94.301 -2485.446)" fill="none" stroke="#1a1818" stroke-miterlimit="10" stroke-width="3"/>
    </g>
    <g id="Group_6" data-name="Group 6" transform="translate(279.188 637.959)">
      <path id="Path_17" data-name="Path 17" d="M13.662,2621.518c-35.779,24.617-5.834,101-10.538,119.059-.105.405,41.141-64.979,44.536-106.431C49.236,2614.921,29.554,2610.584,13.662,2621.518Z" transform="translate(4.164 -2615.629)" fill="#c1e4dd"/>
      <path id="Path_18" data-name="Path 18" d="M59.743,2643.054c-5.865,2.724-9.474,8.689-12.213,14.547a112.645,112.645,0,0,0-10.342,54.327" transform="translate(-24.013 -2634.411)" fill="none" stroke="#1a1818" stroke-miterlimit="10" stroke-width="3"/>
    </g>
  </g>
</svg>
