<svg xmlns="http://www.w3.org/2000/svg" width="95.007" height="19.022" viewBox="0 0 95.007 19.022">
  <g id="logo" transform="translate(755.848 -993.034)">
    <path id="Path_19" data-name="Path 19" d="M-709.344,1528.884q1.059-.435,2.124-.851a.52.52,0,0,1,.688.179q2.024,3.972,3.99,7.969c.069.122.13.162.19.14l.04-.015c.04-.015.079-.093.051-.23q-.219-2.264-.4-4.538a.6.6,0,0,1,.4-.587q.628-.225,1.258-.443a.559.559,0,0,1,.681.206q1.3,1.879,2.553,3.778c.084.118.143.161.2.141l.02-.007c.04-.013.1-.1.06-.228q-.985-4.343-1.911-8.7c-.041-.278.114-.473.42-.57q1.084-.341,2.172-.664c.286-.084.44.035.469.3q.971,6.687,2.132,13.332a.471.471,0,0,1-.346.543q-.907.285-1.811.584a.541.541,0,0,1-.6-.238q-1.444-1.906-2.941-3.783c-.086-.117-.12-.147-.18-.125l-.02.007c-.061.021-.068.066-.062.211q.019,2.4.1,4.784a.522.522,0,0,1-.319.561q-.9.334-1.786.683a.487.487,0,0,1-.613-.205q-3.283-5.9-6.749-11.7C-709.647,1529.181-709.622,1529-709.344,1528.884Z" transform="translate(-46.253 -529.801)" fill="#e07e6f"/>
    <path id="Path_20" data-name="Path 20" d="M-573.337,1542.26a4.04,4.04,0,0,1,3.2-2.593,3.941,3.941,0,0,1,4.01.828c.691.723,1.053,1.417,1.467,3.413a.67.67,0,0,1-.583.831q-2.364.505-4.712,1.106a.271.271,0,0,0-.233.367c.33,1.183.954,1.937,2.119,1.651a1.475,1.475,0,0,0,1.224-1.328.482.482,0,0,1,.385-.474q.848-.192,1.7-.372a.35.35,0,0,1,.453.33c.154,2.113-1.1,3.537-3.241,4.06a3.885,3.885,0,0,1-3.82-.765c-.725-.682-1.1-1.315-1.673-3.335S-573.617,1543.221-573.337,1542.26Zm2.557,1.651q.06.23.247.182,1.394-.358,2.795-.684.251-.058.2-.289a1.547,1.547,0,0,0-2.05-1.324A1.532,1.532,0,0,0-570.78,1543.912Z" transform="translate(-166.007 -543.04)" fill="#e07e6f"/>
    <path id="Path_21" data-name="Path 21" d="M-485.787,1553.461q2.534-.475,5.082-.843a.389.389,0,0,1,.48.331l.21,1.49a.388.388,0,0,1-.362.452q-2.5.361-4.987.827a.388.388,0,0,1-.489-.311l-.282-1.478A.39.39,0,0,1-485.787,1553.461Z" transform="translate(-242.899 -554.597)" fill="#e07e6f"/>
    <path id="Path_22" data-name="Path 22" d="M-421.324,1516.427a.4.4,0,0,1,.39-.446q.7-.083,1.4-.158c.482-.051.531.2.688.665.07.252.2.238.3.109a3.814,3.814,0,0,1,2.613-1.107l.527-.04a.4.4,0,0,1,.467.363q.06.859.121,1.718a.393.393,0,0,1-.4.426l-.646.05c-1.79.145-2.422.994-2.278,2.409l.514,5.161a.379.379,0,0,1-.364.435q-.866.089-1.731.191a.38.38,0,0,1-.45-.345Z" transform="translate(-299.939 -521.893)" fill="#e07e6f"/>
    <path id="Path_23" data-name="Path 23" d="M-355.093,1512.945a4,4,0,0,1,3.654-1.849,3.913,3.913,0,0,1,3.719,1.664c.518.854.723,1.609.7,3.647a.668.668,0,0,1-.742.688q-2.4-.01-4.809.076c-.21.008-.311.11-.3.308.07,1.227.515,2.1,1.706,2.065a1.466,1.466,0,0,0,1.47-1.036.479.479,0,0,1,.474-.381q.864-.007,1.728,0a.349.349,0,0,1,.371.419c-.3,2.1-1.815,3.223-4.007,3.276a3.843,3.843,0,0,1-3.542-1.563c-.558-.821-.79-1.521-.916-3.615S-355.568,1513.823-355.093,1512.945Zm2.13,2.16c.006.158.073.235.2.23q1.428-.052,2.857-.072c.17,0,.255-.082.253-.241a1.543,1.543,0,0,0-1.71-1.731A1.527,1.527,0,0,0-352.963,1515.1Z" transform="translate(-357.755 -518.059)" fill="#e07e6f"/>
    <path id="Path_24" data-name="Path 24" d="M-272.037,1519.445a.3.3,0,0,1,.34-.269q.917.023,1.834.06a.284.284,0,0,1,.3.29c0,.039,0,.079-.005.119-.027.673.568,1.211,1.573,1.267.739.041,1.556-.14,1.61-.89.061-.87-1.5-1.019-2.939-1.635a3.233,3.233,0,0,1-2.3-3.011c.04-2.018,1.9-3.089,4.133-2.961,2.212.124,4.046,1.449,3.845,3.557l-.007.079a.305.305,0,0,1-.347.267q-.961-.084-1.923-.153a.276.276,0,0,1-.279-.317l.005-.079c.048-.672-.685-1.079-1.378-1.118s-1.419.165-1.449.857c-.035.771,1.311.91,2.715,1.583.951.458,2.622,1.061,2.444,3.174-.216,2.246-2.167,2.977-4.236,2.862-2.027-.119-3.978-1.248-3.938-3.6C-272.038,1519.5-272.037,1519.471-272.037,1519.445Z" transform="translate(-431.319 -519.213)" fill="#e07e6f"/>
    <path id="Path_25" data-name="Path 25" d="M-190.39,1525.285c.215-2.067.481-2.777,1.093-3.566a4,4,0,0,1,3.934-1.224c2.857.405,4.1,2.256,3.756,4.179a.372.372,0,0,1-.442.285q-.983-.17-1.968-.323c-.254-.04-.36-.2-.331-.392.1-.645-.334-1.255-1.323-1.394a1.394,1.394,0,0,0-1.461.482c-.286.362-.372.711-.569,2.262s-.2,1.891-.023,2.332a1.377,1.377,0,0,0,1.223.844c.939.132,1.51-.319,1.61-.965a.327.327,0,0,1,.423-.275q.961.15,1.921.316a.343.343,0,0,1,.292.392c-.349,1.933-2,3.249-4.6,2.882A3.827,3.827,0,0,1-190.1,1529C-190.493,1528.1-190.6,1527.352-190.39,1525.285Z" transform="translate(-503.079 -526.273)" fill="#e07e6f"/>
    <path id="Path_26" data-name="Path 26" d="M-107.337,1538.927l1.256-6.552a.4.4,0,0,1,.509-.3q.933.182,1.864.379a.4.4,0,0,1,.35.479l-1.292,6.019a1.451,1.451,0,0,0,1.122,1.972c.927.212,1.614-.251,1.909-1.463l1.4-5.811a.4.4,0,0,1,.524-.28q.926.227,1.849.468a.4.4,0,0,1,.328.5l-2.434,9.184a.381.381,0,0,1-.5.279q-.651-.17-1.3-.333c-.237-.059-.292-.174-.345-.473-.042-.173-.084-.347-.345-.226a3.18,3.18,0,0,1-2.269.226A3.226,3.226,0,0,1-107.337,1538.927Z" transform="translate(-576.19 -536.509)" fill="#e07e6f"/>
    <path id="Path_27" data-name="Path 27" d="M-20.928,1559.805a4.049,4.049,0,0,1,4.1-.529,3.983,3.983,0,0,1,3.008,2.813c.214.98.162,1.761-.532,3.678a.673.673,0,0,1-.938.4q-2.3-.815-4.622-1.534a.272.272,0,0,0-.391.19c-.338,1.181-.2,2.15.947,2.518a1.484,1.484,0,0,0,1.747-.488.485.485,0,0,1,.58-.2q.829.283,1.655.577a.351.351,0,0,1,.217.52c-.977,1.879-2.8,2.433-4.915,1.752a3.9,3.9,0,0,1-2.864-2.655c-.261-.961-.251-1.7.32-3.717S-21.671,1560.477-20.928,1559.805Zm1.318,2.747c-.046.152-.008.246.116.284q1.38.426,2.752.885.246.083.321-.142a1.551,1.551,0,0,0-1.063-2.2A1.534,1.534,0,0,0-19.61,1562.552Z" transform="translate(-650.391 -560.196)" fill="#e07e6f"/>
    <path id="Path_28" data-name="Path 28" d="M55.575,1641.4a1.674,1.674,0,1,1-1.215,3.117,1.7,1.7,0,0,1-1.022-2.224A1.62,1.62,0,0,1,55.575,1641.4Z" transform="translate(-717.561 -632.605)" fill="#e07e6f"/>
  </g>
</svg>
