<svg xmlns="http://www.w3.org/2000/svg" width="249.607" height="49.974" viewBox="0 0 249.607 49.974">
  <g id="Group_9" data-name="Group 9" transform="translate(0 0)">
    <g id="Group_7" data-name="Group 7">
      <path id="Path_19" data-name="Path 19" d="M-708.935,1536.122q2.783-1.143,5.58-2.235a1.366,1.366,0,0,1,1.806.471q5.318,10.435,10.483,20.937c.181.321.341.427.5.367l.105-.039c.1-.04.208-.244.133-.605q-.575-5.949-1.041-11.922a1.566,1.566,0,0,1,1.056-1.542q1.65-.591,3.305-1.165a1.469,1.469,0,0,1,1.788.541q3.405,4.937,6.707,9.927c.221.31.376.423.535.371l.053-.017c.106-.034.27-.254.157-.6q-2.587-11.41-5.02-22.864c-.107-.73.3-1.242,1.1-1.5q2.847-.9,5.706-1.743c.751-.22,1.157.092,1.232.776q2.551,17.569,5.6,35.026a1.237,1.237,0,0,1-.909,1.426q-2.384.748-4.759,1.535a1.42,1.42,0,0,1-1.573-.625q-3.792-5.007-7.726-9.938c-.227-.307-.314-.386-.473-.33l-.053.019c-.159.056-.178.174-.162.554q.051,6.3.253,12.569a1.372,1.372,0,0,1-.837,1.475q-2.352.877-4.693,1.794a1.28,1.28,0,0,1-1.61-.539q-8.625-15.488-17.731-30.745C-709.731,1536.9-709.665,1536.422-708.935,1536.122Z" transform="translate(709.595 -1520.231)" fill="#0f1b22"/>
      <path id="Path_20" data-name="Path 20" d="M-573.043,1546.786c1-3.3,3.876-5.7,8.414-6.813,4.6-1.123,8.191-.3,10.536,2.175,1.815,1.9,2.767,3.723,3.854,8.967a1.76,1.76,0,0,1-1.53,2.182q-6.211,1.327-12.379,2.906a.713.713,0,0,0-.612.964c.866,3.109,2.506,5.089,5.567,4.337a3.876,3.876,0,0,0,3.216-3.49,1.265,1.265,0,0,1,1.012-1.245q2.228-.5,4.461-.976a.919.919,0,0,1,1.191.866c.406,5.55-2.878,9.292-8.514,10.667-4.145,1.014-7.633.35-10.036-2.009-1.9-1.793-2.895-3.456-4.4-8.761S-573.78,1549.311-573.043,1546.786Zm6.719,4.338q.157.605.648.477,3.663-.942,7.343-1.8.658-.152.519-.76c-.544-2.38-2.094-4.279-5.387-3.479C-566.269,1546.319-567.005,1548.511-566.324,1551.125Z" transform="translate(616.404 -1530.533)" fill="#0f1b22"/>
      <path id="Path_21" data-name="Path 21" d="M-485.207,1554.843q6.658-1.248,13.353-2.215a1.023,1.023,0,0,1,1.261.871l.551,3.914a1.018,1.018,0,0,1-.95,1.186q-6.568.949-13.1,2.174a1.019,1.019,0,0,1-1.284-.816q-.371-1.941-.742-3.882A1.023,1.023,0,0,1-485.207,1554.843Z" transform="translate(556.568 -1539.527)" fill="#0f1b22"/>
      <path id="Path_22" data-name="Path 22" d="M-421.319,1518.019a1.04,1.04,0,0,1,1.025-1.171q1.841-.218,3.684-.415c1.267-.135,1.395.534,1.808,1.746.183.662.525.626.781.287a10.02,10.02,0,0,1,6.866-2.908q.693-.054,1.385-.1a1.039,1.039,0,0,1,1.227.954q.159,2.257.318,4.513a1.033,1.033,0,0,1-1.059,1.119q-.849.062-1.7.13c-4.7.382-6.362,2.61-5.984,6.33l1.349,13.558a1,1,0,0,1-.956,1.142q-2.275.234-4.548.5a1,1,0,0,1-1.182-.906Q-419.81,1530.408-421.319,1518.019Z" transform="translate(512.18 -1514.076)" fill="#0f1b22"/>
      <path id="Path_23" data-name="Path 23" d="M-354.215,1515.957c1.663-3.006,4.96-4.74,9.6-4.858,4.7-.115,8.017,1.454,9.771,4.371,1.362,2.244,1.9,4.227,1.845,9.583a1.755,1.755,0,0,1-1.95,1.806q-6.318-.026-12.634.2c-.552.021-.818.29-.8.81.183,3.224,1.354,5.507,4.483,5.426a3.852,3.852,0,0,0,3.861-2.723,1.259,1.259,0,0,1,1.246-1q2.271-.018,4.541,0a.917.917,0,0,1,.974,1.1c-.782,5.51-4.768,8.467-10.528,8.608-4.237.106-7.477-1.289-9.307-4.108-1.466-2.158-2.074-3.995-2.408-9.5S-355.462,1518.265-354.215,1515.957Zm5.6,5.675c.016.416.192.617.528.605q3.751-.138,7.5-.188c.448-.006.67-.216.665-.632-.024-2.441-1.128-4.627-4.492-4.548C-347.551,1516.95-348.727,1518.933-348.62,1521.632Z" transform="translate(467.189 -1511.093)" fill="#0f1b22"/>
      <path id="Path_24" data-name="Path 24" d="M-272.033,1530.9a.8.8,0,0,1,.893-.707q2.409.06,4.818.158a.745.745,0,0,1,.79.761c0,.1-.009.208-.014.312-.072,1.769,1.491,3.181,4.132,3.33,1.941.108,4.087-.367,4.229-2.337.161-2.284-3.93-2.677-7.721-4.3-3.027-1.336-6.136-3.6-6.04-7.911.105-5.3,4.991-8.115,10.858-7.779,5.81.325,10.629,3.806,10.1,9.344-.006.069-.012.138-.019.207a.8.8,0,0,1-.911.7q-2.525-.22-5.053-.4a.725.725,0,0,1-.732-.833l.014-.208c.125-1.765-1.8-2.834-3.621-2.938s-3.727.432-3.808,2.251c-.093,2.025,3.444,2.39,7.134,4.159,2.5,1.2,6.889,2.788,6.421,8.339-.568,5.9-5.692,7.821-11.129,7.518-5.326-.313-10.45-3.278-10.345-9.465C-272.036,1531.039-272.035,1530.97-272.033,1530.9Z" transform="translate(409.942 -1511.992)" fill="#0f1b22"/>
      <path id="Path_25" data-name="Path 25" d="M-190.216,1533.189c.564-5.431,1.264-7.3,2.873-9.369,2.076-2.7,5.673-3.868,10.337-3.216,7.507,1.064,10.783,5.927,9.867,10.98a.976.976,0,0,1-1.161.748q-2.582-.445-5.17-.849c-.668-.1-.947-.514-.868-1.028.262-1.694-.877-3.3-3.477-3.662-1.75-.245-3.006.116-3.84,1.268-.751.952-.979,1.868-1.495,5.943s-.517,4.967-.061,6.126a3.618,3.618,0,0,0,3.214,2.217c2.467.347,3.966-.837,4.229-2.534a.859.859,0,0,1,1.111-.723q2.526.394,5.046.829a.9.9,0,0,1,.768,1.031c-.918,5.078-5.264,8.537-12.074,7.571-4.259-.595-7.18-2.492-8.527-5.572C-190.485,1540.584-190.78,1538.621-190.216,1533.189Z" transform="translate(354.099 -1517.485)" fill="#0f1b22"/>
      <path id="Path_26" data-name="Path 26" d="M-107.2,1550.1q1.649-8.607,3.3-17.212a1.041,1.041,0,0,1,1.336-.8q2.452.479,4.9.995a1.043,1.043,0,0,1,.919,1.259l-3.394,15.813c-.618,2.9.512,4.625,2.948,5.18s4.241-.658,5.016-3.844l3.687-15.267a1.043,1.043,0,0,1,1.376-.735q2.432.6,4.858,1.23a1.044,1.044,0,0,1,.861,1.3l-6.395,24.13a1,1,0,0,1-1.3.733q-1.71-.447-3.424-.874c-.623-.155-.768-.457-.908-1.242-.109-.454-.221-.911-.905-.595a8.356,8.356,0,0,1-5.962.595C-105.584,1559.6-108.228,1555.578-107.2,1550.1Z" transform="translate(297.205 -1525.451)" fill="#0f1b22"/>
      <path id="Path_27" data-name="Path 27" d="M-17.386,1561.158c2.577-2.285,6.292-2.828,10.763-1.391,4.525,1.457,7.185,4.05,7.9,7.392.563,2.574.425,4.627-1.4,9.664a1.769,1.769,0,0,1-2.464,1.051q-6.04-2.142-12.143-4.032a.714.714,0,0,0-1.028.5c-.889,3.1-.526,5.649,2.489,6.615a3.9,3.9,0,0,0,4.589-1.281,1.273,1.273,0,0,1,1.523-.528q2.177.742,4.347,1.517a.922.922,0,0,1,.57,1.365c-2.568,4.938-7.364,6.393-12.913,4.6-4.082-1.314-6.71-3.707-7.524-6.974-.685-2.524-.658-4.46.84-9.766S-19.337,1562.923-17.386,1561.158Zm3.463,7.217c-.122.4-.02.646.3.747q3.626,1.119,7.231,2.325.645.217.845-.375c.783-2.311.448-4.745-2.793-5.792C-11.358,1564.311-13.135,1565.793-13.923,1568.376Z" transform="translate(239.463 -1543.883)" fill="#0f1b22"/>
      <path id="Path_28" data-name="Path 28" d="M59.405,1641.648a4.4,4.4,0,1,1-3.192,8.189A4.472,4.472,0,0,1,53.527,1644,4.257,4.257,0,0,1,59.405,1641.648Z" transform="translate(187.193 -1600.231)" fill="#0f1b22"/>
    </g>
  </g>
</svg>
