<svg xmlns="http://www.w3.org/2000/svg" width="375" height="68" viewBox="0 0 375 68">
  <g id="navbar" transform="translate(0 -42)">
    <rect id="Rectangle_6" data-name="Rectangle 6" width="375" height="68" transform="translate(0 42)" fill="#2e6686"/>
    <g id="Group_11" data-name="Group 11" transform="translate(129.989 64.986)">
      <g id="Group_7" data-name="Group 7">
        <path id="Path_19" data-name="Path 19" d="M-709.291,1529.821q1.282-.527,2.571-1.03a.63.63,0,0,1,.832.217q2.45,4.809,4.831,9.648c.083.148.157.2.23.169l.049-.018c.048-.018.1-.112.061-.279q-.265-2.741-.48-5.494a.721.721,0,0,1,.487-.711q.761-.272,1.523-.537a.677.677,0,0,1,.824.249q1.569,2.275,3.091,4.574c.1.143.173.2.247.171l.025-.008c.049-.016.125-.117.073-.276q-1.192-5.258-2.313-10.536c-.049-.336.138-.572.509-.69q1.312-.414,2.63-.8c.346-.1.533.043.568.358q1.176,8.1,2.582,16.14a.57.57,0,0,1-.419.657q-1.1.345-2.193.707a.655.655,0,0,1-.725-.288q-1.748-2.307-3.56-4.579c-.1-.141-.145-.178-.218-.152l-.025.009c-.073.026-.082.08-.075.255q.023,2.9.116,5.792a.632.632,0,0,1-.386.68q-1.084.4-2.162.827a.59.59,0,0,1-.742-.248q-3.974-7.137-8.171-14.168C-709.657,1530.18-709.627,1529.959-709.291,1529.821Z" transform="translate(709.595 -1522.498)" fill="#e07e6f"/>
        <path id="Path_20" data-name="Path 20" d="M-573.3,1542.846c.46-1.519,1.786-2.628,3.877-3.14,2.118-.517,3.774-.139,4.855,1,.836.876,1.275,1.716,1.776,4.132a.811.811,0,0,1-.705,1.006q-2.862.612-5.7,1.339a.329.329,0,0,0-.282.444c.4,1.433,1.155,2.345,2.565,2a1.786,1.786,0,0,0,1.482-1.608.583.583,0,0,1,.466-.574q1.027-.233,2.055-.45a.423.423,0,0,1,.549.4c.187,2.558-1.326,4.282-3.923,4.916a4.7,4.7,0,0,1-4.625-.926c-.877-.826-1.334-1.592-2.025-4.037S-573.639,1544.01-573.3,1542.846Zm3.1,2q.072.279.3.22,1.688-.434,3.383-.828.3-.07.239-.35a1.873,1.873,0,0,0-2.482-1.6A1.854,1.854,0,0,0-570.2,1544.846Z" transform="translate(593.28 -1535.357)" fill="#e07e6f"/>
        <path id="Path_21" data-name="Path 21" d="M-485.712,1553.64q3.068-.575,6.153-1.021a.471.471,0,0,1,.581.4l.254,1.8a.469.469,0,0,1-.438.547q-3.027.437-6.038,1a.47.47,0,0,1-.592-.376l-.342-1.789A.472.472,0,0,1-485.712,1553.64Z" transform="translate(518.595 -1546.582)" fill="#e07e6f"/>
        <path id="Path_22" data-name="Path 22" d="M-421.323,1516.634a.479.479,0,0,1,.472-.54q.848-.1,1.7-.191c.584-.062.643.246.833.8.084.3.242.289.36.133a4.617,4.617,0,0,1,3.164-1.34l.638-.048a.479.479,0,0,1,.566.44q.073,1.04.147,2.08a.476.476,0,0,1-.488.516l-.782.06c-2.167.176-2.932,1.2-2.758,2.917l.622,6.248a.459.459,0,0,1-.44.526q-1.048.108-2.1.232a.46.46,0,0,1-.545-.417Z" transform="translate(463.193 -1514.817)" fill="#e07e6f"/>
        <path id="Path_23" data-name="Path 23" d="M-354.979,1513.334c.766-1.385,2.286-2.184,4.423-2.239,2.164-.053,3.694.67,4.5,2.014.627,1.034.876,1.948.85,4.416a.809.809,0,0,1-.9.833q-2.911-.012-5.822.091c-.254.01-.377.133-.367.373.084,1.486.624,2.537,2.066,2.5a1.775,1.775,0,0,0,1.779-1.255.58.58,0,0,1,.574-.461q1.046-.008,2.093,0a.423.423,0,0,1,.449.507c-.36,2.539-2.2,3.9-4.852,3.966a4.653,4.653,0,0,1-4.289-1.893c-.676-.994-.956-1.841-1.109-4.377S-355.554,1514.4-354.979,1513.334Zm2.578,2.615c.007.192.088.284.243.279q1.729-.064,3.458-.087c.206,0,.309-.1.306-.292a1.868,1.868,0,0,0-2.07-2.1A1.849,1.849,0,0,0-352.4,1515.949Z" transform="translate(407.038 -1511.093)" fill="#e07e6f"/>
        <path id="Path_24" data-name="Path 24" d="M-272.036,1520.928a.367.367,0,0,1,.411-.326q1.11.028,2.22.073a.343.343,0,0,1,.364.351c0,.048,0,.1-.006.144-.033.815.687,1.466,1.9,1.535.895.05,1.883-.169,1.949-1.077.074-1.053-1.811-1.233-3.558-1.98-1.395-.616-2.827-1.658-2.783-3.645.049-2.443,2.3-3.74,5-3.584,2.677.15,4.9,1.754,4.655,4.306l-.009.1a.369.369,0,0,1-.42.324q-1.164-.1-2.328-.185a.334.334,0,0,1-.338-.384l.007-.1c.058-.813-.829-1.306-1.669-1.354s-1.718.2-1.755,1.037c-.043.933,1.587,1.1,3.287,1.917,1.151.554,3.174,1.284,2.959,3.843-.262,2.719-2.623,3.6-5.128,3.464-2.454-.144-4.815-1.51-4.767-4.361C-272.038,1520.992-272.037,1520.96-272.036,1520.928Z" transform="translate(335.586 -1512.214)" fill="#e07e6f"/>
        <path id="Path_25" data-name="Path 25" d="M-190.368,1526.308c.26-2.5.582-3.362,1.324-4.317.957-1.244,2.614-1.782,4.763-1.482,3.459.49,4.969,2.731,4.547,5.06a.45.45,0,0,1-.535.344q-1.19-.205-2.382-.391c-.308-.048-.436-.237-.4-.474.121-.78-.4-1.519-1.6-1.688a1.688,1.688,0,0,0-1.769.584c-.346.439-.451.861-.689,2.739s-.238,2.289-.028,2.823a1.667,1.667,0,0,0,1.481,1.021c1.137.16,1.828-.386,1.949-1.168a.4.4,0,0,1,.512-.333q1.164.181,2.325.382a.415.415,0,0,1,.354.475c-.423,2.34-2.426,3.934-5.564,3.489a4.633,4.633,0,0,1-3.929-2.568C-190.492,1529.716-190.628,1528.811-190.368,1526.308Z" transform="translate(265.887 -1519.072)" fill="#e07e6f"/>
        <path id="Path_26" data-name="Path 26" d="M-107.32,1540.373l1.52-7.932a.48.48,0,0,1,.616-.369q1.13.221,2.257.458a.481.481,0,0,1,.424.58l-1.564,7.287a1.756,1.756,0,0,0,1.359,2.387c1.122.256,1.954-.3,2.311-1.771l1.7-7.035a.481.481,0,0,1,.634-.339q1.121.275,2.238.567a.481.481,0,0,1,.4.6l-2.947,11.119a.462.462,0,0,1-.6.338q-.788-.206-1.578-.4c-.287-.071-.354-.21-.418-.572-.05-.209-.1-.42-.417-.274a3.851,3.851,0,0,1-2.747.274A3.906,3.906,0,0,1-107.32,1540.373Z" transform="translate(194.875 -1529.014)" fill="#e07e6f"/>
        <path id="Path_27" data-name="Path 27" d="M-20.47,1559.98c1.188-1.053,2.9-1.3,4.959-.641,2.085.671,3.311,1.866,3.641,3.406.26,1.186.2,2.132-.644,4.453a.816.816,0,0,1-1.135.484q-2.783-.987-5.6-1.858a.329.329,0,0,0-.474.23c-.41,1.43-.242,2.6,1.147,3.048a1.8,1.8,0,0,0,2.115-.59.587.587,0,0,1,.7-.244q1,.342,2,.7a.425.425,0,0,1,.263.629c-1.183,2.275-3.393,2.946-5.951,2.122a4.717,4.717,0,0,1-3.467-3.214c-.316-1.163-.3-2.055.387-4.5S-21.369,1560.794-20.47,1559.98Zm1.6,3.326c-.056.184-.009.3.14.344q1.671.516,3.332,1.071.3.1.389-.173a1.878,1.878,0,0,0-1.287-2.669A1.857,1.857,0,0,0-18.874,1563.306Z" transform="translate(122.805 -1552.02)" fill="#e07e6f"/>
        <path id="Path_28" data-name="Path 28" d="M56.071,1641.435a2.027,2.027,0,1,1-1.471,3.774,2.061,2.061,0,0,1-1.238-2.692A1.962,1.962,0,0,1,56.071,1641.435Z" transform="translate(57.564 -1622.35)" fill="#e07e6f"/>
      </g>
    </g>
    <g id="Group_12" data-name="Group 12" transform="translate(-749.879 -1495)">
      <line id="Line_4" data-name="Line 4" x2="31.76" transform="translate(779.5 1559.5)" fill="none" stroke="#c9e3dd" stroke-linecap="round" stroke-width="3"/>
      <line id="Line_5" data-name="Line 5" x2="31.76" transform="translate(779.5 1571)" fill="none" stroke="#c9e3dd" stroke-linecap="round" stroke-width="3"/>
      <line id="Line_6" data-name="Line 6" x2="31.76" transform="translate(779.5 1582.501)" fill="none" stroke="#c9e3dd" stroke-linecap="round" stroke-width="3"/>
    </g>
  </g>
</svg>
