<svg xmlns="http://www.w3.org/2000/svg" xmlns:xlink="http://www.w3.org/1999/xlink" width="162" height="162" viewBox="0 0 162 162">
  <defs>
    <linearGradient id="linear-gradient" x1="2.054" y1="-1.365" x2="0.035" y2="2.354" gradientUnits="objectBoundingBox">
      <stop offset="0" stop-color="#e49e71"/>
      <stop offset="1" stop-color="#e07e6f"/>
    </linearGradient>
  </defs>
  <g id="Group_42" data-name="Group 42" transform="translate(-18 -495)">
    <rect id="Scales_Button" data-name="Scales Button" width="162" height="162" rx="15" transform="translate(18 495)" fill="url(#linear-gradient)"/>
    <g id="Group_15" data-name="Group 15" transform="translate(-2834.258 -342.68)">
      <path id="Path_30" data-name="Path 30" d="M2873.968,902.1c.93,0,1.864.061,2.786-.021a3.53,3.53,0,0,1,1.738.315,42.273,42.273,0,0,1,6.344,3.283,26.7,26.7,0,0,0,3.82,1.977c1.421.643,2.788,1.387,4.187,2.068a8.1,8.1,0,0,0,1.613.585,3.4,3.4,0,0,0,2.894-1c.338-.252.219-.587-.145-.851a23.441,23.441,0,0,0-2.787-1.3,8.3,8.3,0,0,1-2.265-1.566,2.388,2.388,0,0,0-2.044-.852c-.792.055-1.592.014-2.389.008-.076,0-.212-.051-.216-.09-.017-.161.161-.122.227-.182a1.408,1.408,0,0,1,1.094-.251.593.593,0,0,0,.575-.221,1.859,1.859,0,0,1,.17-.188.81.81,0,0,0-.215-.121,9.506,9.506,0,0,0-2.81-.266,10.268,10.268,0,0,1-2.546-.26c-.159-.024-.259-.083-.253-.219a.547.547,0,0,1,.146-.331,2.608,2.608,0,0,1,1.543-.3c1.056.057,2.116.047,3.173.03.2,0,.226-.252.141-.409a2.041,2.041,0,0,0-1.618-.868c-1.073-.181-2.064-.61-3.115-.833a.565.565,0,0,1-.228-.086c-.1-.08-.285-.216-.266-.271.049-.144.173-.346.295-.366a5.073,5.073,0,0,1,2.207,0c1.056.3,2.053.808,3.093,1.173.23.081.494.454.705.2.224-.271-.384-.447-.263-.793a8.393,8.393,0,0,0-1.854-1.608c-.182-.085-.445-.026-.556-.265-.046-.1-.235-.131-.165-.278.025-.052.146-.077.224-.08a3.015,3.015,0,0,1,2.026.864,14.231,14.231,0,0,1,1.134,1.116,3.829,3.829,0,0,0,.473.463c.3.21.7.594.971.426.3-.183.265-.7-.006-1.029a.688.688,0,0,1-.1-.49.42.42,0,0,1,.074-.232c.044-.066.105-.017.186.066.4.412.789.84,1.222,1.216a9.24,9.24,0,0,0,4.167,2.113,22.877,22.877,0,0,1,2.98.813,6.943,6.943,0,0,1,2.937,2.452,2.7,2.7,0,0,1,.4,1.818c-.068.779.51,1.144,1.284.884.11-.037.188-.173.337-.146,1.137.2,2.21-.42,3.341-.261.659.093,1.213-.349,1.884-.293a3,3,0,0,0,1.894-.216,1.77,1.77,0,0,1,1.046-.017,10.987,10.987,0,0,0,3.2-.325,11.608,11.608,0,0,0,3.116-1.093c1.157-.523,2.223-1.256,3.394-1.739a18.008,18.008,0,0,1,3.394-1.1c.645-.127,1.263-.394,1.909-.5a1.48,1.48,0,0,0,.863-.416,1.154,1.154,0,0,0-.011-1.117,7.075,7.075,0,0,0-.819-1.392,11.593,11.593,0,0,1-1.981-3.55c-.08-.18-.006-.3.1-.457a2.982,2.982,0,0,1,1.832-1.033c.165-.045.43.068.515-.021.273-.284.876-.218.907-.631.024-.326-.467-.407-.753-.557-1.415-.743-1.839-.8-3.762-.451-.216.039-.216-.078-.2-.176.082-.552.768-1.319,1.31-1.33.455-.008.964-.225,1.388.155a.344.344,0,0,0,.227.084,6.639,6.639,0,0,0,1.817-.1c-.285-.588-.94-.67-1.423-.9a27.944,27.944,0,0,1-3.919-2.079,3.681,3.681,0,0,0-1.174-.359c-.186-.049-.489.054-.187-.321a1.323,1.323,0,0,1,1.63-.391,34.768,34.768,0,0,1,3.762,1.494,10.255,10.255,0,0,0,1.5.534c.115.037.292.039.34-.109a.411.411,0,0,0-.049-.349c-.708-.729-1.394-1.488-2.163-2.149a4.7,4.7,0,0,1-1.192-2.165c-.11-.3.014-.649-.251-.969a.774.774,0,0,1,.081-.857c.188.173.387.334.562.519,1.653,1.754,3.645,3.154,5.239,4.968.478.544,1.183.579,1.785.822a5.029,5.029,0,0,0,1.343.245,23.768,23.768,0,0,1,3.375.876,8.031,8.031,0,0,1,2.331,1.075,2.134,2.134,0,0,1,.945,1.721c.088,1.055-.419,2.03-.29,3.073-.379.466-.462,1.142-1.27,1.294a3.582,3.582,0,0,0-1.7.682c-.072.061-.272.127-.141.267a.407.407,0,0,0,.347.04,29.915,29.915,0,0,1,3.26-.8,31.786,31.786,0,0,1,5.341-.218,11.752,11.752,0,0,1,2.149-.3,5.728,5.728,0,0,0,2.243-.014c1.252-.356,2.588-.236,3.8-.76a14.532,14.532,0,0,0,4.175-.832c1.115-.251,2.209-.657,3.333-.9,1.337-.293,2.638-.729,4-.932a26.218,26.218,0,0,0,2.9-.69.918.918,0,0,1,.359-.085c1.048.158,2.027-.462,3.077-.269a13.141,13.141,0,0,1,4.138-.256c1.415-.039,2.837-.084,4.246.014a21.294,21.294,0,0,1,3.734.592c.744.189,1.495.454,2.234.673a17.047,17.047,0,0,1,4.308,2.106,18,18,0,0,1,3.805,3.291,18.311,18.311,0,0,1,2.754,4.422c.472,1,1.029,1.959,1.47,2.971a34.647,34.647,0,0,1,1.759,4.978,19.64,19.64,0,0,0,.688,2.492,1.178,1.178,0,0,1,.06.372,44.325,44.325,0,0,1,.273,5.589c-.036.528,0,1.06-.007,1.59a8.687,8.687,0,0,1-.236,2.417c-.227.763.211,1.643-.293,2.4.2.835-.291,1.582-.294,2.408a9.644,9.644,0,0,1-.578,2.537c-.358,1.252-.758,2.5-1.216,3.732a25.65,25.65,0,0,1-2.406,4.706,16.426,16.426,0,0,1-3.2,3.7,28.885,28.885,0,0,1-3.283,2.3c-1.74,1.12-3.667,1.916-5.336,3.149a27.105,27.105,0,0,0-2.905,1.317c-.965.338-1.9.777-2.874,1.068-1.825.542-3.676.986-5.54,1.4a23.562,23.562,0,0,0-4.906,1.266c-.833-.176-1.592.287-2.412.272-1.416-.027-2.832-.005-4.248-.009-.381,0-.776.077-1.1-.253-.059-.061-.307-.028-.3-.147s.207-.1.325-.135c.817-.273,1.621-.576,2.455-.806,1.024-.282,2.008-.7,3.018-1.04,1.245-.415,2.507-.779,3.745-1.213,1.427-.5,2.83-1.074,4.255-1.581a29.994,29.994,0,0,0,4.161-1.8,46.508,46.508,0,0,0,6.426-4.024,14.591,14.591,0,0,0,2.016-1.806,27.626,27.626,0,0,0,2.8-3.589,30.542,30.542,0,0,0,2.642-5.936c.42-1.161.579-2.393,1.036-3.546.2-.492-.174-1.128.286-1.605-.193-.919.32-1.754.287-2.674-.07-1.985.064-3.98-.045-5.962a13.182,13.182,0,0,0-1.606-5.815,11.383,11.383,0,0,0-3.353-3.794c-.96-.672-1.906-1.372-2.876-2.04a17.586,17.586,0,0,0-5.016-2.32,8.056,8.056,0,0,0-3.1-.517c-.55.055-.937-.386-1.488-.3-.518.08-1.063-.026-1.589.026-1.333.129-2.667.222-4,.306a8.155,8.155,0,0,0-2.777.945c-1.646.765-3.2,1.684-4.763,2.607a28.06,28.06,0,0,1-6.082,2.931,6.18,6.18,0,0,1-1.313.3c-.693.038-1.307.479-2.011.32-.545.5-1.365.01-1.9.53a8.852,8.852,0,0,0-2.412.268c-.255.016-.587-.135-.752.081-.307.4-.384-.167-.625-.1s-.231.2-.246.375c-.036.421.307.669.449,1.008a2.008,2.008,0,0,1,.118,2.019c-.251.43-.269,1.015-.526,1.5a.635.635,0,0,0,.318.884,2.579,2.579,0,0,0,1.193.339c1.459-.041,2.921,0,4.38-.02a11.967,11.967,0,0,1,5.213,1.2,7.482,7.482,0,0,1,1.47.632,13.72,13.72,0,0,1,2.132,1.594,2.388,2.388,0,0,1,.6.947c.192.853.627,1.606.89,2.426a9.153,9.153,0,0,0,1.215,2.011,6.774,6.774,0,0,1,1.4,3.53c.008.386.276.67.307,1.08.053.717-.381,1.321-.31,2.014.007.065-.081.14-.125.21-.044-.069-.131-.139-.128-.206a4.2,4.2,0,0,0-1.31-2.764,17.09,17.09,0,0,0-2.212-2.55,2.677,2.677,0,0,0-1.194-.662c-.649-.148-.545-.149-.887.4a12.324,12.324,0,0,0-.954,2.657,2.75,2.75,0,0,0-.039,1.8,6.049,6.049,0,0,1,.211,2.03c.036.572,0,1.148.01,1.722a8.767,8.767,0,0,1-.487,2.979,14.334,14.334,0,0,1-.28,1.609c-.153.354-.053.812-.281,1.212-.161.284.11.688-.114,1.01-.145-.357-.294-.712-.434-1.071-.728-1.863-.509-3.815-.532-5.744.486-.806.218-1.692.256-2.542a13.98,13.98,0,0,0-.028-2.645c-.065-.448-.045-1.143-.533-1.314-.265-.093-.786.292-1.08.577a24.69,24.69,0,0,0-3.167,3.576,22.062,22.062,0,0,1-2.767,2.832c-.043.042-.184.027-.252-.01s-.137-.149-.121-.2a18.092,18.092,0,0,1,.832-2.569,6.451,6.451,0,0,1,1.473-2.045,9.857,9.857,0,0,0,1.512-2.021c.12-.182.2-.3-.085-.294s-.575-.083-.867.152a15.453,15.453,0,0,0-2.5,1.977c-.106.128-.216.294-.425.245a.839.839,0,0,1-.213-.124c.542-.28.135-.859.431-1.284a6.763,6.763,0,0,1,2.087-2.012c.443-.265.979-.381,1.195-.928-.477-.338-1.014-.074-1.517-.151a1.284,1.284,0,0,0-.4,0c-.229.038-.438.478-.626.181-.09-.141.131-.569.368-.807a2.338,2.338,0,0,1,1.857-.969.779.779,0,0,0,.707-.234c.164-.175.734.19.633-.339-.039-.2-.488-.407-.781-.471a3.22,3.22,0,0,0-2.086.386c-.854.411-1.75.7-2.615,1.058-.432.18-1.005-.145-1.3.4-.619-.153-1.16.24-1.749.258-.928.028-1.858.006-2.788.009-.138,0-.271-.017-.328-.148-.344-.8-1.225-1.246-1.475-2.036-.239-.757-.654-1.411-.927-2.139a24.736,24.736,0,0,0-2.509-4.922c-.731-1.11-1.311-1.115-2.273-.14a16.313,16.313,0,0,1-3.263,2.706,24.13,24.13,0,0,1-4.257,2.224c-1.021.356-2.005.912-3.023,1.345a45.308,45.308,0,0,1-6.467,2.342c-1.576.379-3.136.788-4.735,1.081a5.749,5.749,0,0,0-1.728.27c-.576.333-1.165,0-1.634.234-1,.508-2.148-.078-3.111.507-1.327,0-2.656.023-3.982-.013-.452-.012-.85-.321-1.353-.274-.407.038-.879.2-1.253-.15-.205-.193-.225.044-.221.114a1.749,1.749,0,0,0,.206.978,2.442,2.442,0,0,1-.036,2.5c-.812,1.693-1.5,3.444-2.313,5.139a7.6,7.6,0,0,1-3.724,3.625c-.71.338-1.33.818-2.03,1.177a1.8,1.8,0,0,0-.882,1.732c.031,1.236.008,2.473.01,3.711,0,.128-.011.255-.176.227-.041-.007-.07-.139-.089-.218a18.913,18.913,0,0,0-.794-2.72c-.047-.113-.01-.263-.062-.371a.462.462,0,0,0-.818-.126,17.419,17.419,0,0,0-1.952,2.244,27.866,27.866,0,0,1-2.75,2.965c-.04.046-.122.055-.185.082-.026-.077-.092-.167-.072-.231a8.214,8.214,0,0,1,.543-1.627c.381-.685.641-1.416.974-2.118.086-.181.123-.341-.049-.444a.368.368,0,0,0-.346.048,7.255,7.255,0,0,1-2.812,1.555,5.636,5.636,0,0,0-1.95,1.059c-.075.07-.135.265-.269.15-.074-.064-.076-.235-.076-.358a2.963,2.963,0,0,1,.786-1.789c.4-.522.939-.935,1.382-1.426.125-.139.534.09.386-.262-.068-.162-.4-.108-.6-.027a18.573,18.573,0,0,0-1.9.857,1.125,1.125,0,0,1-.6.161c-.121,0-.279-.008-.193-.19a3.775,3.775,0,0,1,1.424-1.9,5.892,5.892,0,0,1,1.651-.791,5.173,5.173,0,0,0,1.585-.673c1.345-.721,2.668-1.5,3.939-2.339a3.954,3.954,0,0,0,1.663-2.344,4.784,4.784,0,0,1,1.281-2.115,9.444,9.444,0,0,1,2.494-2.273c.075-.038.126-.122.189-.184.979-.958,1.194-1.588.087-2.649a10.738,10.738,0,0,1-2.4-3.25,2.616,2.616,0,0,0-1.542-1.408,8.38,8.38,0,0,1-3.449-1.933c-.084-.089-.226-.225-.3-.2-.633.176-1.149-.3-1.752-.281a17,17,0,0,1-6.208-1.357,7.033,7.033,0,0,1-2.189-1.439,29.81,29.81,0,0,0-5.194-4.135,1.7,1.7,0,0,1-.284-.276c-1.438-1.339-2.972-2.575-4.3-4.028a8.9,8.9,0,0,0-2.564-1.81,12.628,12.628,0,0,1-2.663-1.874,2.387,2.387,0,0,1-.931-1.863,1.476,1.476,0,0,1,.766-1.241c.376-.271.919-.134,1.245-.52.705.165,1.323-.371,2.009-.264.582.09,1.036-.347,1.619-.293a1.845,1.845,0,0,0,1.495-.229c.131-.109.429-.017.65-.017Z" fill="#0f1b22"/>
    </g>
  </g>
</svg>
