<svg id="ios_share-24px" xmlns="http://www.w3.org/2000/svg" width="20.632" height="20.632" viewBox="0 0 20.632 20.632">
  <path id="Path_1" data-name="Path 1" d="M0,0H20.632V20.632H0Z" fill="none"/>
  <path id="Path_2" data-name="Path 2" d="M14.316,4.439,13.1,5.659,11.728,4.293v9.6h-1.7v-9.6L8.659,5.659,7.439,4.439,10.877,1Zm3.439,4.3v9.456a1.724,1.724,0,0,1-1.719,1.719H5.719A1.719,1.719,0,0,1,4,18.193V8.737A1.713,1.713,0,0,1,5.719,7.018H8.3V8.737H5.719v9.456H16.035V8.737H13.456V7.018h2.579A1.719,1.719,0,0,1,17.755,8.737Z" transform="translate(-0.561 -0.14)" fill="#e49e71"/>
</svg>
